<svg xmlns="http://www.w3.org/2000/svg" viewBox="0 0 800 160" width="800" height="160" role="img" aria-labelledby="logoTitle logoDesc">
  <title id="logoTitle">REAL Analytics — Mind‑Loving Maths</title>
  <desc id="logoDesc">REAL Analytics mark with Mind‑Loving Maths wordmark and a heart inside a brain icon.</desc>
  <defs>
    <linearGradient id="g" x1="0" x2="1">
      <stop offset="0" stop-color="#14b8a6"/>
      <stop offset="1" stop-color="#22d3ee"/>
    </linearGradient>
    <style>
      .word{font-family:Inter, system-ui, -apple-system, Roboto, Arial; font-weight:700; fill:#00222a}
      .sub{font-family:Inter, system-ui; font-weight:500; fill:#0f3b4b}
      .mark-stroke{stroke:#00222a; stroke-width:1.6; fill:none}
    </style>
  </defs>
  <g transform="translate(14,12) scale(0.82)">
    <rect x="0" y="0" width="120" height="120" rx="12" fill="#003b4a"/>
    <g transform="translate(12,12) scale(1)">
      <path d="M26 20c0 0 20-2 34 10 12 10 14 34 10 42-6 12-30 14-44 6-10-6-22-24-20-38 1-10 8-20 20-20z" fill="#fff" opacity="0.9"/>
      <text x="14" y="100" font-family="Inter, system-ui" font-size="14" fill="#fff">REAL</text>
      <text x="14" y="116" font-family="Inter, system-ui" font-size="12" fill="#fff">Analytics</text>
    </g>
  </g>
  <g transform="translate(170,10) scale(1)">
    <g transform="translate(0,0) scale(0.92)">
      <path d="M130 18c-12-6-30-8-46-4-22 6-42 22-56 40-14 18-18 40-10 62 8 22 28 34 48 36 20 2 38-6 62-6 28 0 46-16 56-38 10-22 6-44-6-64-12-20-30-34-48-46z" fill="#fff" opacity="0.06"/>
      <path d="M130 18c-12-6-30-8-46-4-22 6-42 22-56 40-14 18-18 40-10 62 8 22 28 34 48 36 20 2 38-6 62-6 28 0 46-16 56-38 10-22 6-44-6-64-12-20-30-34-48-46z" stroke="#06273a" stroke-width="2" fill="url(#g)"/>
      <g transform="translate(28,28) scale(0.62)">
        <path d="M50 15c-6-10-22-12-30 0-8 12 6 30 30 45 24-15 38-33 30-45-8-12-24-10-30 0z" fill="#ff6b8a" stroke="#e64a6b" stroke-width="2"/>
      </g>
    </g>
  </g>
  <g transform="translate(360,44)">
    <text class="word" x="0" y="0" font-size="36">Mind‑Loving</text>
    <text class="sub" x="0" y="36" font-size="20">Maths</text>
  </g>
</svg>
